<?xml version="1.0" encoding="utf-8"?>
<svg viewBox="0 0 500 500" xmlns="http://www.w3.org/2000/svg">
  <defs/>
  <path d="M 380.127 6.346 C 405.553 22.729 425.875 40.993 446.673 61.281 C 453.159 67.548 459.66 73.798 466.187 80.035 C 469.074 82.815 471.956 85.6 474.925 88.469 C 482.168 95.552 482.168 95.552 492.744 99.313 C 492.744 102.102 492.744 104.891 492.744 107.764 C 480.96 115.332 469.181 122.44 456.911 129.421 C 453.492 131.399 450.072 133.376 446.55 135.413 C 438.084 140.311 429.581 145.171 421.079 150.022 C 430.661 167.694 445.035 180.958 460.167 195.58 C 467.149 204.957 467.149 204.957 467.226 213.193 C 459.645 225.832 448.736 234.283 436.753 244.311 C 359.354 311.619 299.458 401.192 277.748 492.308 C 276.059 492.308 274.37 492.308 272.629 492.308 C 277.226 332.334 292.255 151.425 380.127 6.346 Z M 385.246 35.926 C 365.543 67.624 355.945 100.352 346.531 134.97 C 344.96 140.662 343.383 146.354 341.812 152.046 C 330.478 193.399 320.558 234.786 313.581 276.794 C 313.059 279.854 312.542 282.918 312.004 286.07 C 304.991 327.744 304.991 327.744 303.343 369.761 C 317.348 363.98 319.365 357.253 326.378 345.729 C 357.465 297.581 399.026 254.96 441.554 213.408 C 434.132 195.001 422.727 182.488 407.641 167.719 C 403.454 163.595 399.272 159.471 394.962 155.224 C 390.15 150.558 390.15 150.558 385.246 145.796 C 388.906 144.761 392.571 143.725 396.344 142.66 C 412.612 136.698 424.334 129.261 438.033 119.913 C 442.553 116.854 447.073 113.79 451.731 110.638 C 455.13 108.297 458.529 105.951 462.03 103.538 C 440.894 78.691 417.792 56.248 390.365 35.926 C 388.676 35.926 386.986 35.926 385.246 35.926 Z" fill="#6A15E1" style="opacity: 1;"/>
  <path d="M 108.823 6.346 C 123.53 20.65 131.428 36.222 139.214 53.624 C 140.55 56.603 141.886 59.578 143.263 62.65 C 156.153 92.336 165.234 122.368 172.974 153.225 C 175.359 162.661 177.898 172.059 180.447 181.47 C 193.306 230.979 200.626 280.923 207.363 331.201 C 207.818 334.518 208.274 337.84 208.74 341.258 C 214.647 384.771 217.554 427.379 216.321 471.179 C 207.076 459.732 201.819 449.455 196.347 436.57 C 163.821 360.122 114.182 291.09 43.889 234.14 C 27.002 219.95 27.002 219.95 26.618 209.102 C 36.559 193.75 50.943 181.436 64.713 168.361 C 67.441 165.099 70.175 161.837 72.99 158.473 C 66.279 141.853 53.41 135.794 36.835 125.99 C 32.474 123.353 32.474 123.353 28.031 120.665 C 20.859 116.338 13.651 112.049 6.444 107.764 C 13.247 95.505 20.823 86.099 31.716 76.071 C 36.39 71.756 36.39 71.756 41.156 67.357 C 63.638 46.964 86.187 26.621 108.823 6.346 Z M 79.066 55.47 C 60.771 70.683 45.031 85.013 32.039 103.538 C 40.004 109.032 48.01 114.479 56.031 119.913 C 60.485 122.956 64.938 125.994 69.53 129.125 C 82.445 136.88 93.789 141.549 108.823 145.796 C 106.043 148.653 103.264 151.505 100.402 154.446 C 96.742 158.215 93.077 161.985 89.304 165.868 C 85.685 169.595 82.061 173.323 78.329 177.16 C 74.874 180.756 71.424 184.352 67.871 188.054 C 64.682 190.864 61.493 193.678 58.212 196.573 C 50.994 204.978 50.994 204.978 55.535 215.521 C 62.911 226.318 70.569 234.093 80.986 242.988 C 118.114 276.418 147.655 314.721 174.888 353.999 C 176.736 356.412 178.584 358.825 180.488 361.31 C 182.177 361.31 183.867 361.31 185.607 361.31 C 188.08 284.473 168.167 206.685 147.215 132.062 C 145.756 126.818 144.302 121.57 142.802 116.165 C 134.581 87.928 124.733 61.872 108.823 35.926 C 97.679 35.926 86.177 49.647 79.066 55.47 Z" fill="#6A15E3" style="opacity: 1;"/>
  <path d="M 328.938 10.572 C 328.938 30.095 328.938 49.618 328.938 69.732 C 322.283 68.511 315.633 67.294 308.779 66.035 C 304.551 65.295 300.323 64.556 295.961 63.791 C 282.867 61.281 282.867 61.281 271.529 58.243 C 240.979 50.581 221.731 55.424 192.687 65.739 C 180.488 69.732 180.488 69.732 165.131 69.732 C 165.131 51.604 165.131 33.475 165.131 14.798 C 187.086 18.423 197.463 21.559 215.998 30.382 C 235.594 38.859 235.594 38.859 257.272 38.567 C 262.34 36.302 267.408 34.037 272.629 31.701 C 281.685 27.99 290.75 24.297 299.821 20.608 C 304.239 18.723 308.651 16.839 313.197 14.899 C 323.819 10.572 323.819 10.572 328.938 10.572 Z" fill="#6715DB" style="opacity: 1;"/>
</svg>